<svg width="50" height="50" viewBox="0 0 50 50" fill="none" xmlns="http://www.w3.org/2000/svg">
<path fill-rule="evenodd" clip-rule="evenodd" d="M49.4251 46.6495C50.1916 47.416 50.1916 48.6586 49.4251 49.4251C48.6586 50.1916 47.416 50.1916 46.6495 49.4251L25 27.7756L3.35047 49.4251C2.58402 50.1916 1.34135 50.1916 0.574892 49.4251C-0.191564 48.6587 -0.191564 47.416 0.574892 46.6495L22.2244 25L0.574842 3.35043C-0.191614 2.58397 -0.191614 1.3413 0.574842 0.574843C1.3413 -0.191613 2.58397 -0.191615 3.35042 0.574842L25 22.2244L46.6496 0.574864C47.416 -0.191592 48.6587 -0.191591 49.4252 0.574866C50.1916 1.34132 50.1916 2.58399 49.4252 3.35045L27.7756 25L49.4251 46.6495Z" fill="black"/>
</svg>
