<svg width="682" height="255" viewBox="0 0 682 255" fill="none" xmlns="http://www.w3.org/2000/svg">
<circle cx="127.5" cy="127.5" r="127.5" fill="#BE26D7"/>
<circle cx="116.737" cy="113.425" r="101.834" fill="#CF2AEA"/>
<circle cx="110.942" cy="104.318" r="82.7922" fill="#E22FFF"/>
<g filter="url(#filter0_d_10_191)">
<circle cx="99.3505" cy="87.76" r="41.3961" fill="white"/>
</g>
<path d="M322.399 106.371V122.599H344.19V132.891H322.399V150.046H346.972V160.617H309.418V95.8004H346.972V106.371H322.399Z" fill="black"/>
<path d="M378.428 161.451C374.224 161.451 370.453 160.71 367.115 159.226C363.777 157.68 361.119 155.61 359.14 153.013C357.224 150.417 356.173 147.542 355.988 144.39H369.062C369.31 146.368 370.268 148.006 371.937 149.304C373.668 150.602 375.8 151.251 378.335 151.251C380.808 151.251 382.724 150.757 384.084 149.768C385.506 148.779 386.217 147.511 386.217 145.966C386.217 144.297 385.351 143.06 383.62 142.257C381.951 141.391 379.262 140.464 375.553 139.475C371.72 138.548 368.568 137.59 366.095 136.6C363.684 135.611 361.582 134.097 359.79 132.057C358.059 130.017 357.193 127.266 357.193 123.804C357.193 120.96 357.997 118.364 359.604 116.015C361.273 113.666 363.622 111.811 366.651 110.451C369.742 109.091 373.359 108.411 377.5 108.411C383.62 108.411 388.504 109.957 392.151 113.048C395.799 116.077 397.808 120.188 398.179 125.38H385.753C385.568 123.34 384.702 121.733 383.157 120.559C381.673 119.322 379.664 118.704 377.13 118.704C374.78 118.704 372.957 119.137 371.659 120.002C370.422 120.868 369.804 122.073 369.804 123.619C369.804 125.35 370.67 126.679 372.4 127.606C374.131 128.471 376.82 129.368 380.468 130.295C384.177 131.222 387.237 132.18 389.648 133.17C392.059 134.159 394.13 135.704 395.86 137.806C397.653 139.846 398.58 142.566 398.642 145.966C398.642 148.933 397.808 151.591 396.139 153.94C394.531 156.29 392.182 158.144 389.091 159.504C386.062 160.802 382.508 161.451 378.428 161.451Z" fill="black"/>
<path d="M428.957 161.451C424.753 161.451 420.982 160.71 417.644 159.226C414.306 157.68 411.648 155.61 409.67 153.013C407.753 150.417 406.702 147.542 406.517 144.39H419.591C419.839 146.368 420.797 148.006 422.466 149.304C424.197 150.602 426.33 151.251 428.864 151.251C431.337 151.251 433.253 150.757 434.613 149.768C436.035 148.779 436.746 147.511 436.746 145.966C436.746 144.297 435.88 143.06 434.15 142.257C432.48 141.391 429.791 140.464 426.082 139.475C422.25 138.548 419.097 137.59 416.624 136.6C414.213 135.611 412.111 134.097 410.319 132.057C408.588 130.017 407.722 127.266 407.722 123.804C407.722 120.96 408.526 118.364 410.133 116.015C411.802 113.666 414.151 111.811 417.18 110.451C420.271 109.091 423.888 108.411 428.03 108.411C434.15 108.411 439.033 109.957 442.68 113.048C446.328 116.077 448.337 120.188 448.708 125.38H436.282C436.097 123.34 435.231 121.733 433.686 120.559C432.202 119.322 430.193 118.704 427.659 118.704C425.31 118.704 423.486 119.137 422.188 120.002C420.951 120.868 420.333 122.073 420.333 123.619C420.333 125.35 421.199 126.679 422.93 127.606C424.66 128.471 427.35 129.368 430.997 130.295C434.706 131.222 437.766 132.18 440.177 133.17C442.588 134.159 444.659 135.704 446.39 137.806C448.182 139.846 449.11 142.566 449.171 145.966C449.171 148.933 448.337 151.591 446.668 153.94C445.06 156.29 442.711 158.144 439.62 159.504C436.591 160.802 433.037 161.451 428.957 161.451Z" fill="black"/>
<path d="M507.582 133.819C507.582 135.673 507.459 137.342 507.211 138.826H469.657C469.966 142.535 471.264 145.44 473.551 147.542C475.839 149.644 478.651 150.695 481.99 150.695C486.811 150.695 490.242 148.624 492.282 144.482H506.284C504.801 149.428 501.957 153.508 497.753 156.722C493.55 159.875 488.388 161.451 482.268 161.451C477.322 161.451 472.871 160.37 468.915 158.206C465.021 155.98 461.961 152.859 459.735 148.84C457.571 144.822 456.49 140.186 456.49 134.931C456.49 129.615 457.571 124.948 459.735 120.93C461.899 116.911 464.928 113.82 468.822 111.657C472.717 109.493 477.199 108.411 482.268 108.411C487.151 108.411 491.51 109.462 495.342 111.564C499.237 113.666 502.235 116.664 504.337 120.559C506.501 124.391 507.582 128.811 507.582 133.819ZM494.137 130.11C494.075 126.771 492.87 124.113 490.521 122.135C488.171 120.095 485.297 119.075 481.897 119.075C478.682 119.075 475.962 120.064 473.737 122.042C471.573 123.959 470.244 126.648 469.75 130.11H494.137Z" fill="black"/>
<path d="M545.525 108.504C551.645 108.504 556.591 110.451 560.362 114.346C564.132 118.179 566.018 123.557 566.018 130.48V160.617H553.036V132.242C553.036 128.162 552.016 125.04 549.976 122.877C547.936 120.651 545.154 119.539 541.631 119.539C538.045 119.539 535.202 120.651 533.1 122.877C531.06 125.04 530.04 128.162 530.04 132.242V160.617H517.058V109.246H530.04V115.644C531.771 113.419 533.965 111.688 536.623 110.451C539.343 109.153 542.311 108.504 545.525 108.504Z" fill="black"/>
<path d="M575.025 134.931C575.025 129.615 576.107 124.979 578.27 121.022C580.434 117.004 583.432 113.913 587.265 111.75C591.098 109.524 595.487 108.411 600.432 108.411C606.799 108.411 612.054 110.019 616.196 113.233C620.399 116.386 623.212 120.837 624.634 126.586H610.632C609.89 124.36 608.623 122.63 606.83 121.393C605.099 120.095 602.936 119.446 600.339 119.446C596.63 119.446 593.694 120.806 591.53 123.526C589.367 126.184 588.285 129.986 588.285 134.931C588.285 139.815 589.367 143.617 591.53 146.337C593.694 148.995 596.63 150.324 600.339 150.324C605.594 150.324 609.025 147.975 610.632 143.277H624.634C623.212 148.84 620.399 153.26 616.196 156.537C611.992 159.813 606.737 161.451 600.432 161.451C595.487 161.451 591.098 160.37 587.265 158.206C583.432 155.98 580.434 152.89 578.27 148.933C576.107 144.915 575.025 140.248 575.025 134.931Z" fill="black"/>
<path d="M681.899 133.819C681.899 135.673 681.775 137.342 681.528 138.826H643.973C644.282 142.535 645.581 145.44 647.868 147.542C650.155 149.644 652.968 150.695 656.306 150.695C661.128 150.695 664.559 148.624 666.599 144.482H680.601C679.117 149.428 676.273 153.508 672.07 156.722C667.866 159.875 662.704 161.451 656.584 161.451C651.639 161.451 647.188 160.37 643.231 158.206C639.337 155.98 636.277 152.859 634.051 148.84C631.888 144.822 630.806 140.186 630.806 134.931C630.806 129.615 631.888 124.948 634.051 120.93C636.215 116.911 639.244 113.82 643.139 111.657C647.033 109.493 651.515 108.411 656.584 108.411C661.468 108.411 665.826 109.462 669.659 111.564C673.553 113.666 676.551 116.664 678.653 120.559C680.817 124.391 681.899 128.811 681.899 133.819ZM668.453 130.11C668.391 126.771 667.186 124.113 664.837 122.135C662.488 120.095 659.613 119.075 656.213 119.075C652.999 119.075 650.279 120.064 648.053 122.042C645.89 123.959 644.561 126.648 644.066 130.11H668.453Z" fill="black"/>
<defs>
<filter id="filter0_d_10_191" x="41.9544" y="30.3639" width="114.792" height="114.792" filterUnits="userSpaceOnUse" color-interpolation-filters="sRGB">
<feFlood flood-opacity="0" result="BackgroundImageFix"/>
<feColorMatrix in="SourceAlpha" type="matrix" values="0 0 0 0 0 0 0 0 0 0 0 0 0 0 0 0 0 0 127 0" result="hardAlpha"/>
<feOffset/>
<feGaussianBlur stdDeviation="8"/>
<feComposite in2="hardAlpha" operator="out"/>
<feColorMatrix type="matrix" values="0 0 0 0 1 0 0 0 0 1 0 0 0 0 1 0 0 0 1 0"/>
<feBlend mode="normal" in2="BackgroundImageFix" result="effect1_dropShadow_10_191"/>
<feBlend mode="normal" in="SourceGraphic" in2="effect1_dropShadow_10_191" result="shape"/>
</filter>
</defs>
</svg>
