<svg width="682" height="255" viewBox="0 0 682 255" fill="none" xmlns="http://www.w3.org/2000/svg">
<circle cx="127.5" cy="127.5" r="127.5" fill="#BE26D7"/>
<circle cx="116.737" cy="113.425" r="101.835" fill="#CF2AEA"/>
<circle cx="110.942" cy="104.318" r="82.7924" fill="#E22FFF"/>
<g filter="url(#filter0_d_10_216)">
<circle cx="99.3506" cy="87.7591" r="41.3962" fill="white"/>
</g>
<path d="M322.4 106.372V122.599H344.191V132.892H322.4V150.047H346.973V160.618H309.418V95.801H346.973V106.372H322.4Z" fill="white"/>
<path d="M378.429 161.452C374.225 161.452 370.454 160.71 367.116 159.227C363.778 157.681 361.119 155.61 359.141 153.014C357.225 150.417 356.174 147.543 355.989 144.39H369.063C369.31 146.368 370.269 148.007 371.938 149.305C373.669 150.603 375.801 151.252 378.336 151.252C380.809 151.252 382.725 150.757 384.085 149.768C385.507 148.779 386.218 147.512 386.218 145.967C386.218 144.297 385.352 143.061 383.621 142.257C381.952 141.392 379.263 140.465 375.554 139.476C371.721 138.548 368.569 137.59 366.096 136.601C363.685 135.612 361.583 134.097 359.79 132.057C358.059 130.017 357.194 127.267 357.194 123.805C357.194 120.961 357.998 118.365 359.605 116.016C361.274 113.667 363.623 111.812 366.652 110.452C369.743 109.092 373.359 108.412 377.501 108.412C383.621 108.412 388.505 109.957 392.152 113.048C395.799 116.077 397.809 120.188 398.18 125.381H385.754C385.569 123.341 384.703 121.734 383.158 120.559C381.674 119.323 379.665 118.705 377.13 118.705C374.781 118.705 372.958 119.137 371.659 120.003C370.423 120.868 369.805 122.074 369.805 123.619C369.805 125.35 370.67 126.679 372.401 127.607C374.132 128.472 376.821 129.368 380.469 130.296C384.178 131.223 387.238 132.181 389.649 133.17C392.059 134.159 394.13 135.705 395.861 137.807C397.654 139.847 398.581 142.567 398.643 145.967C398.643 148.934 397.809 151.592 396.14 153.941C394.532 156.29 392.183 158.145 389.092 159.505C386.063 160.803 382.509 161.452 378.429 161.452Z" fill="white"/>
<path d="M428.958 161.452C424.754 161.452 420.983 160.71 417.645 159.227C414.307 157.681 411.649 155.61 409.67 153.014C407.754 150.417 406.703 147.543 406.518 144.39H419.592C419.84 146.368 420.798 148.007 422.467 149.305C424.198 150.603 426.33 151.252 428.865 151.252C431.338 151.252 433.254 150.757 434.614 149.768C436.036 148.779 436.747 147.512 436.747 145.967C436.747 144.297 435.881 143.061 434.151 142.257C432.481 141.392 429.792 140.465 426.083 139.476C422.25 138.548 419.098 137.59 416.625 136.601C414.214 135.612 412.112 134.097 410.32 132.057C408.589 130.017 407.723 127.267 407.723 123.805C407.723 120.961 408.527 118.365 410.134 116.016C411.803 113.667 414.152 111.812 417.181 110.452C420.272 109.092 423.889 108.412 428.031 108.412C434.151 108.412 439.034 109.957 442.681 113.048C446.329 116.077 448.338 120.188 448.709 125.381H436.283C436.098 123.341 435.232 121.734 433.687 120.559C432.203 119.323 430.194 118.705 427.66 118.705C425.31 118.705 423.487 119.137 422.189 120.003C420.952 120.868 420.334 122.074 420.334 123.619C420.334 125.35 421.2 126.679 422.93 127.607C424.661 128.472 427.35 129.368 430.998 130.296C434.707 131.223 437.767 132.181 440.178 133.17C442.589 134.159 444.66 135.705 446.391 137.807C448.183 139.847 449.111 142.567 449.172 145.967C449.172 148.934 448.338 151.592 446.669 153.941C445.061 156.29 442.712 158.145 439.621 159.505C436.592 160.803 433.038 161.452 428.958 161.452Z" fill="white"/>
<path d="M507.583 133.819C507.583 135.674 507.46 137.343 507.212 138.827H469.658C469.967 142.536 471.265 145.441 473.552 147.543C475.84 149.645 478.652 150.696 481.991 150.696C486.812 150.696 490.243 148.625 492.283 144.483H506.285C504.802 149.428 501.958 153.508 497.754 156.723C493.551 159.876 488.389 161.452 482.269 161.452C477.323 161.452 472.872 160.37 468.916 158.207C465.021 155.981 461.962 152.859 459.736 148.841C457.572 144.823 456.491 140.187 456.491 134.932C456.491 129.616 457.572 124.948 459.736 120.93C461.9 116.912 464.929 113.821 468.823 111.657C472.718 109.494 477.2 108.412 482.269 108.412C487.152 108.412 491.511 109.463 495.343 111.565C499.238 113.667 502.236 116.665 504.338 120.559C506.502 124.392 507.583 128.812 507.583 133.819ZM494.138 130.11C494.076 126.772 492.871 124.114 490.522 122.136C488.172 120.096 485.298 119.076 481.898 119.076C478.683 119.076 475.963 120.065 473.738 122.043C471.574 123.959 470.245 126.648 469.751 130.11H494.138Z" fill="white"/>
<path d="M545.526 108.505C551.646 108.505 556.592 110.452 560.363 114.347C564.134 118.179 566.019 123.557 566.019 130.481V160.618H553.037V132.243C553.037 128.163 552.017 125.041 549.977 122.877C547.937 120.652 545.155 119.539 541.632 119.539C538.046 119.539 535.203 120.652 533.101 122.877C531.061 125.041 530.041 128.163 530.041 132.243V160.618H517.059V109.247H530.041V115.645C531.772 113.419 533.966 111.688 536.624 110.452C539.344 109.154 542.312 108.505 545.526 108.505Z" fill="white"/>
<path d="M575.026 134.932C575.026 129.616 576.108 124.979 578.271 121.023C580.435 117.005 583.433 113.914 587.266 111.75C591.099 109.525 595.488 108.412 600.433 108.412C606.801 108.412 612.055 110.019 616.197 113.234C620.401 116.387 623.213 120.837 624.635 126.587H610.633C609.891 124.361 608.624 122.63 606.831 121.394C605.101 120.096 602.937 119.447 600.341 119.447C596.631 119.447 593.695 120.807 591.531 123.527C589.368 126.185 588.286 129.987 588.286 134.932C588.286 139.816 589.368 143.617 591.531 146.337C593.695 148.996 596.631 150.325 600.341 150.325C605.595 150.325 609.026 147.976 610.633 143.277H624.635C623.213 148.841 620.401 153.261 616.197 156.538C611.993 159.814 606.739 161.452 600.433 161.452C595.488 161.452 591.099 160.37 587.266 158.207C583.433 155.981 580.435 152.89 578.271 148.934C576.108 144.916 575.026 140.248 575.026 134.932Z" fill="white"/>
<path d="M681.9 133.819C681.9 135.674 681.776 137.343 681.529 138.827H643.975C644.284 142.536 645.582 145.441 647.869 147.543C650.156 149.645 652.969 150.696 656.307 150.696C661.129 150.696 664.56 148.625 666.6 144.483H680.602C679.118 149.428 676.275 153.508 672.071 156.723C667.867 159.876 662.706 161.452 656.586 161.452C651.64 161.452 647.189 160.37 643.233 158.207C639.338 155.981 636.278 152.859 634.053 148.841C631.889 144.823 630.807 140.187 630.807 134.932C630.807 129.616 631.889 124.948 634.053 120.93C636.216 116.912 639.246 113.821 643.14 111.657C647.035 109.494 651.516 108.412 656.586 108.412C661.469 108.412 665.827 109.463 669.66 111.565C673.555 113.667 676.553 116.665 678.655 120.559C680.818 124.392 681.9 128.812 681.9 133.819ZM668.455 130.11C668.393 126.772 667.187 124.114 664.838 122.136C662.489 120.096 659.615 119.076 656.215 119.076C653 119.076 650.28 120.065 648.055 122.043C645.891 123.959 644.562 126.648 644.067 130.11H668.455Z" fill="white"/>
<defs>
<filter id="filter0_d_10_216" x="41.9545" y="30.3629" width="114.792" height="114.792" filterUnits="userSpaceOnUse" color-interpolation-filters="sRGB">
<feFlood flood-opacity="0" result="BackgroundImageFix"/>
<feColorMatrix in="SourceAlpha" type="matrix" values="0 0 0 0 0 0 0 0 0 0 0 0 0 0 0 0 0 0 127 0" result="hardAlpha"/>
<feOffset/>
<feGaussianBlur stdDeviation="8"/>
<feComposite in2="hardAlpha" operator="out"/>
<feColorMatrix type="matrix" values="0 0 0 0 1 0 0 0 0 1 0 0 0 0 1 0 0 0 1 0"/>
<feBlend mode="normal" in2="BackgroundImageFix" result="effect1_dropShadow_10_216"/>
<feBlend mode="normal" in="SourceGraphic" in2="effect1_dropShadow_10_216" result="shape"/>
</filter>
</defs>
</svg>
