<svg width="290" height="290" viewBox="0 0 290 290" fill="none" xmlns="http://www.w3.org/2000/svg">
<path fill-rule="evenodd" clip-rule="evenodd" d="M160 100C160 108.284 153.284 115 145 115C136.716 115 130 108.284 130 100C130 91.7157 136.716 85 145 85C153.284 85 160 91.7157 160 100ZM163.583 116.723C167.572 112.294 170 106.43 170 100C170 86.1929 158.807 75 145 75C131.193 75 120 86.1929 120 100C120 106.43 122.428 112.294 126.417 116.723C83.2683 124.832 49.8966 160.655 45.4938 205C45.1672 208.289 45 211.625 45 215H55H235H245C245 211.625 244.833 208.289 244.506 205C240.103 160.655 206.732 124.832 163.583 116.723ZM145 125C98.6745 125 60.5237 160 55.5493 205H234.451C229.476 160 191.326 125 145 125Z" fill="#E22FFF"/>
</svg>
