<svg width="290" height="290" viewBox="0 0 290 290" fill="none" xmlns="http://www.w3.org/2000/svg">
<path fill-rule="evenodd" clip-rule="evenodd" d="M87.1426 30C86.2566 30 85.3864 30.2355 84.6213 30.6823L7.47867 75.73C6.31185 76.4113 5.47047 77.5359 5.14617 78.8476C4.82187 80.1593 5.04225 81.5464 5.75713 82.693L39.0687 136.122C40.4352 138.313 43.2462 139.104 45.5546 137.945L82.1426 119.58V255C82.1426 257.762 84.3812 260 87.1426 260H145H202.856C205.618 260 207.856 257.762 207.856 255V119.58L244.445 137.945C246.753 139.104 249.564 138.313 250.93 136.122L284.242 82.693C284.957 81.5464 285.177 80.1593 284.853 78.8476C284.529 77.5359 283.687 76.4113 282.52 75.73L205.378 30.6823C204.613 30.2355 203.743 30 202.856 30H145H87.1426ZM145 40H88.4956L16.966 81.7699L45.1427 126.963L84.8997 107.008C86.4496 106.23 88.292 106.31 89.768 107.221C91.2439 108.132 92.1426 109.742 92.1426 111.476V250H145H197.856V111.476C197.856 109.742 198.755 108.132 200.231 107.221C201.707 106.31 203.549 106.23 205.099 107.008L244.856 126.963L273.033 81.7699L201.503 40H145Z" fill="#E22FFF"/>
</svg>
